<svg xmlns="http://www.w3.org/2000/svg" viewBox="0 0 800 800"><defs><linearGradient id="p"><stop stop-color="#4b5364"/><stop offset="1" stop-color="#151922"/></linearGradient><linearGradient id="s"><stop stop-color="#7b8495"/><stop offset="1" stop-color="#30343d"/></linearGradient><linearGradient id="a"><stop stop-color="#c69c3c"/><stop offset="1" stop-color="#725017"/></linearGradient><filter id="sh"><feDropShadow dx="0" dy="12" stdDeviation="10" flood-opacity=".3"/></filter></defs><g filter="url(#sh)" stroke="#111820" stroke-width="8" stroke-linejoin="round" stroke-linecap="round"><ellipse cx="410" cy="690" rx="280" ry="34" fill="#000" opacity=".12" stroke="none"/><path d="M220 430 590 430 650 560 575 630 245 630 165 560Z" fill="url(#p)"/><path d="M210 470 145 610 205 650 275 545Z" fill="url(#s)"/><path d="M590 470 655 610 595 650 525 545Z" fill="url(#s)"/><path d="M330 470 285 665 350 675 395 520Z" fill="url(#s)"/><path d="M470 470 515 665 450 675 405 520Z" fill="url(#s)"/><path d="M365 350 640 125 690 150 440 410Z" fill="#272d39"/><path d="M625 105 735 70 750 115 675 165Z" fill="url(#a)"/><rect x="300" y="400" width="200" height="75" rx="18" fill="#626b7d"/></g></svg>