<svg xmlns="http://www.w3.org/2000/svg" viewBox="0 0 800 800"><defs><linearGradient id="p"><stop stop-color="#a9222b"/><stop offset="1" stop-color="#151922"/></linearGradient><linearGradient id="s"><stop stop-color="#3a3041"/><stop offset="1" stop-color="#30343d"/></linearGradient><linearGradient id="a"><stop stop-color="#e9bd4b"/><stop offset="1" stop-color="#725017"/></linearGradient><filter id="sh"><feDropShadow dx="0" dy="12" stdDeviation="10" flood-opacity=".3"/></filter></defs><g filter="url(#sh)" stroke="#111820" stroke-width="8" stroke-linejoin="round" stroke-linecap="round"><ellipse cx="400" cy="720" rx="230" ry="38" fill="#000" opacity=".12" stroke="none"/><path d="M330 330 270 450 300 610 360 610 390 455Z" fill="url(#s)"/><path d="M470 330 530 450 500 610 440 610 410 455Z" fill="url(#s)"/><path d="M295 590 255 705 345 705 365 595Z" fill="url(#p)"/><path d="M505 590 545 705 455 705 435 595Z" fill="url(#p)"/><path d="M315 225 485 225 525 355 465 455 335 455 275 355Z" fill="url(#p)"/><path d="M360 160 440 160 470 235 430 270 370 270 330 235Z" fill="url(#s)"/><path d="M372 188 428 188 440 216 400 235 360 216Z" fill="#88d7ff"/><path d="M285 260 205 335 175 500 225 520 310 395Z" fill="url(#s)"/><path d="M515 260 595 335 625 500 575 520 490 395Z" fill="url(#s)"/><path d="M280 250 115 175 205 340Z" fill="url(#a)"/><path d="M520 250 685 175 595 340Z" fill="url(#a)"/><path d="M250 325 90 285 205 390Z" fill="#8f1f27"/><path d="M550 325 710 285 595 390Z" fill="#8f1f27"/><path d="M610 350 735 585 700 600 560 405Z" fill="#d9b64b"/><circle cx="400" cy="315" r="27" fill="#e9bd4b"/></g></svg>